<mxfile host="app.diagrams.net" modified="2023-10-31T10:43:05.401Z" agent="Mozilla/5.0 (Windows NT 10.0; Win64; x64) AppleWebKit/537.36 (KHTML, like Gecko) Chrome/118.0.0.0 Safari/537.36" etag="FPejzBUGH4m_i1a0EnGe" version="22.0.8" type="device">
  <diagram name="PÃ¡gina-1" id="FnIPbZbpuK1aj-cGiWum">
    <mxGraphModel dx="880" dy="438" grid="1" gridSize="10" guides="1" tooltips="1" connect="1" arrows="1" fold="1" page="1" pageScale="1" pageWidth="827" pageHeight="1169" math="0" shadow="0">
      <root>
        <mxCell id="0" />
        <mxCell id="1" parent="0" />
        <mxCell id="qq2iiKylXy4GbTJGjwxg-13" style="edgeStyle=orthogonalEdgeStyle;rounded=0;orthogonalLoop=1;jettySize=auto;html=1;exitX=1;exitY=1;exitDx=0;exitDy=0;exitPerimeter=0;entryX=0;entryY=0.5;entryDx=0;entryDy=0;" parent="1" source="qq2iiKylXy4GbTJGjwxg-1" target="qq2iiKylXy4GbTJGjwxg-12" edge="1">
          <mxGeometry relative="1" as="geometry">
            <mxPoint x="220" y="410" as="targetPoint" />
          </mxGeometry>
        </mxCell>
        <mxCell id="qq2iiKylXy4GbTJGjwxg-16" style="edgeStyle=orthogonalEdgeStyle;rounded=0;orthogonalLoop=1;jettySize=auto;html=1;exitX=0;exitY=1;exitDx=0;exitDy=0;exitPerimeter=0;entryX=0;entryY=0.5;entryDx=0;entryDy=0;" parent="1" source="qq2iiKylXy4GbTJGjwxg-1" target="qq2iiKylXy4GbTJGjwxg-15" edge="1">
          <mxGeometry relative="1" as="geometry" />
        </mxCell>
        <mxCell id="qq2iiKylXy4GbTJGjwxg-29" style="edgeStyle=orthogonalEdgeStyle;rounded=0;orthogonalLoop=1;jettySize=auto;html=1;exitX=0.5;exitY=0.5;exitDx=0;exitDy=0;exitPerimeter=0;entryX=0;entryY=0.5;entryDx=0;entryDy=0;" parent="1" source="qq2iiKylXy4GbTJGjwxg-1" target="qq2iiKylXy4GbTJGjwxg-21" edge="1">
          <mxGeometry relative="1" as="geometry" />
        </mxCell>
        <mxCell id="XNWPFkPOzoW7NmKH2UKV-8" value="" style="edgeStyle=orthogonalEdgeStyle;rounded=0;orthogonalLoop=1;jettySize=auto;html=1;" edge="1" parent="1" source="qq2iiKylXy4GbTJGjwxg-1">
          <mxGeometry relative="1" as="geometry">
            <mxPoint x="165" y="310" as="targetPoint" />
          </mxGeometry>
        </mxCell>
        <mxCell id="qq2iiKylXy4GbTJGjwxg-1" value="Utilizador&lt;br&gt;" style="shape=umlActor;verticalLabelPosition=bottom;verticalAlign=top;html=1;outlineConnect=0;" parent="1" vertex="1">
          <mxGeometry x="150" y="220" width="30" height="50" as="geometry" />
        </mxCell>
        <mxCell id="qq2iiKylXy4GbTJGjwxg-31" style="edgeStyle=orthogonalEdgeStyle;rounded=0;orthogonalLoop=1;jettySize=auto;html=1;exitX=0.5;exitY=0.5;exitDx=0;exitDy=0;exitPerimeter=0;entryX=1;entryY=0.5;entryDx=0;entryDy=0;" parent="1" source="qq2iiKylXy4GbTJGjwxg-2" target="qq2iiKylXy4GbTJGjwxg-30" edge="1">
          <mxGeometry relative="1" as="geometry" />
        </mxCell>
        <mxCell id="XNWPFkPOzoW7NmKH2UKV-10" style="edgeStyle=orthogonalEdgeStyle;rounded=0;orthogonalLoop=1;jettySize=auto;html=1;exitX=0.5;exitY=0.5;exitDx=0;exitDy=0;exitPerimeter=0;entryX=1;entryY=0.5;entryDx=0;entryDy=0;" edge="1" parent="1" source="qq2iiKylXy4GbTJGjwxg-2" target="XNWPFkPOzoW7NmKH2UKV-9">
          <mxGeometry relative="1" as="geometry" />
        </mxCell>
        <mxCell id="qq2iiKylXy4GbTJGjwxg-2" value="Administrador&lt;br&gt;" style="shape=umlActor;verticalLabelPosition=bottom;verticalAlign=top;html=1;outlineConnect=0;fillColor=#cdeb8b;strokeColor=#36393d;" parent="1" vertex="1">
          <mxGeometry x="660" y="220" width="30" height="60" as="geometry" />
        </mxCell>
        <mxCell id="qq2iiKylXy4GbTJGjwxg-4" value="" style="swimlane;startSize=0;" parent="1" vertex="1">
          <mxGeometry x="230" y="30" width="390" height="970" as="geometry" />
        </mxCell>
        <mxCell id="qq2iiKylXy4GbTJGjwxg-5" value="Formula1Passionados" style="text;html=1;align=center;verticalAlign=middle;resizable=0;points=[];autosize=1;strokeColor=#B20000;fillColor=#e51400;fontColor=#ffffff;" parent="qq2iiKylXy4GbTJGjwxg-4" vertex="1">
          <mxGeometry x="130" y="8" width="140" height="30" as="geometry" />
        </mxCell>
        <mxCell id="qq2iiKylXy4GbTJGjwxg-6" value="Login" style="ellipse;whiteSpace=wrap;html=1;fillColor=#dae8fc;strokeColor=#6c8ebf;" parent="qq2iiKylXy4GbTJGjwxg-4" vertex="1">
          <mxGeometry x="20" y="80" width="120" height="80" as="geometry" />
        </mxCell>
        <mxCell id="qq2iiKylXy4GbTJGjwxg-8" value="Pagina Inicial" style="ellipse;whiteSpace=wrap;html=1;fillColor=#dae8fc;strokeColor=#6c8ebf;" parent="qq2iiKylXy4GbTJGjwxg-4" vertex="1">
          <mxGeometry x="20" y="190" width="120" height="80" as="geometry" />
        </mxCell>
        <mxCell id="qq2iiKylXy4GbTJGjwxg-10" value="Equipas" style="ellipse;whiteSpace=wrap;html=1;fillColor=#dae8fc;strokeColor=#6c8ebf;" parent="qq2iiKylXy4GbTJGjwxg-4" vertex="1">
          <mxGeometry x="20" y="300" width="120" height="80" as="geometry" />
        </mxCell>
        <mxCell id="qq2iiKylXy4GbTJGjwxg-12" value="Pilotos" style="ellipse;whiteSpace=wrap;html=1;fillColor=#dae8fc;strokeColor=#6c8ebf;" parent="qq2iiKylXy4GbTJGjwxg-4" vertex="1">
          <mxGeometry x="20" y="410" width="120" height="80" as="geometry" />
        </mxCell>
        <mxCell id="qq2iiKylXy4GbTJGjwxg-19" style="edgeStyle=orthogonalEdgeStyle;rounded=0;orthogonalLoop=1;jettySize=auto;html=1;exitX=1;exitY=0.5;exitDx=0;exitDy=0;entryX=0;entryY=0.5;entryDx=0;entryDy=0;jumpStyle=gap;" parent="qq2iiKylXy4GbTJGjwxg-4" source="qq2iiKylXy4GbTJGjwxg-15" target="qq2iiKylXy4GbTJGjwxg-17" edge="1">
          <mxGeometry relative="1" as="geometry" />
        </mxCell>
        <mxCell id="qq2iiKylXy4GbTJGjwxg-20" style="edgeStyle=orthogonalEdgeStyle;rounded=0;orthogonalLoop=1;jettySize=auto;html=1;exitX=1;exitY=0.5;exitDx=0;exitDy=0;entryX=0;entryY=0.5;entryDx=0;entryDy=0;" parent="qq2iiKylXy4GbTJGjwxg-4" source="qq2iiKylXy4GbTJGjwxg-15" target="qq2iiKylXy4GbTJGjwxg-18" edge="1">
          <mxGeometry relative="1" as="geometry" />
        </mxCell>
        <mxCell id="qq2iiKylXy4GbTJGjwxg-15" value="Apostas" style="ellipse;whiteSpace=wrap;html=1;fillColor=#dae8fc;strokeColor=#6c8ebf;" parent="qq2iiKylXy4GbTJGjwxg-4" vertex="1">
          <mxGeometry x="20" y="530" width="120" height="80" as="geometry" />
        </mxCell>
        <mxCell id="qq2iiKylXy4GbTJGjwxg-17" value="piloto do mes&amp;nbsp;" style="ellipse;whiteSpace=wrap;html=1;fillColor=#fff2cc;strokeColor=#d6b656;" parent="qq2iiKylXy4GbTJGjwxg-4" vertex="1">
          <mxGeometry x="180" y="470" width="120" height="80" as="geometry" />
        </mxCell>
        <mxCell id="qq2iiKylXy4GbTJGjwxg-18" value="piloto da corrida" style="ellipse;whiteSpace=wrap;html=1;fillColor=#fff2cc;strokeColor=#d6b656;" parent="qq2iiKylXy4GbTJGjwxg-4" vertex="1">
          <mxGeometry x="180" y="595" width="120" height="80" as="geometry" />
        </mxCell>
        <mxCell id="qq2iiKylXy4GbTJGjwxg-23" value="" style="edgeStyle=orthogonalEdgeStyle;rounded=0;orthogonalLoop=1;jettySize=auto;html=1;" parent="qq2iiKylXy4GbTJGjwxg-4" source="qq2iiKylXy4GbTJGjwxg-21" target="qq2iiKylXy4GbTJGjwxg-22" edge="1">
          <mxGeometry relative="1" as="geometry" />
        </mxCell>
        <mxCell id="qq2iiKylXy4GbTJGjwxg-28" style="edgeStyle=orthogonalEdgeStyle;rounded=0;orthogonalLoop=1;jettySize=auto;html=1;exitX=1;exitY=0.5;exitDx=0;exitDy=0;entryX=0;entryY=0.5;entryDx=0;entryDy=0;" parent="qq2iiKylXy4GbTJGjwxg-4" source="qq2iiKylXy4GbTJGjwxg-21" target="qq2iiKylXy4GbTJGjwxg-27" edge="1">
          <mxGeometry relative="1" as="geometry" />
        </mxCell>
        <mxCell id="qq2iiKylXy4GbTJGjwxg-21" value="Conta" style="ellipse;whiteSpace=wrap;html=1;fillColor=#dae8fc;strokeColor=#6c8ebf;" parent="qq2iiKylXy4GbTJGjwxg-4" vertex="1">
          <mxGeometry x="10" y="780" width="120" height="80" as="geometry" />
        </mxCell>
        <mxCell id="qq2iiKylXy4GbTJGjwxg-22" value="Perfil" style="ellipse;whiteSpace=wrap;html=1;fillColor=#fff2cc;strokeColor=#d6b656;" parent="qq2iiKylXy4GbTJGjwxg-4" vertex="1">
          <mxGeometry x="184" y="730" width="120" height="80" as="geometry" />
        </mxCell>
        <mxCell id="qq2iiKylXy4GbTJGjwxg-27" value="Logaut" style="ellipse;whiteSpace=wrap;html=1;fillColor=#fff2cc;strokeColor=#d6b656;" parent="qq2iiKylXy4GbTJGjwxg-4" vertex="1">
          <mxGeometry x="184" y="840" width="120" height="80" as="geometry" />
        </mxCell>
        <mxCell id="qq2iiKylXy4GbTJGjwxg-30" value="Adicionar equipas-Premio" style="ellipse;whiteSpace=wrap;html=1;fillColor=#e1d5e7;strokeColor=#9673a6;" parent="qq2iiKylXy4GbTJGjwxg-4" vertex="1">
          <mxGeometry x="230" y="120" width="120" height="80" as="geometry" />
        </mxCell>
        <mxCell id="XNWPFkPOzoW7NmKH2UKV-9" value="Adicionar Pilotos-Premio" style="ellipse;whiteSpace=wrap;html=1;fillColor=#e1d5e7;strokeColor=#9673a6;" vertex="1" parent="qq2iiKylXy4GbTJGjwxg-4">
          <mxGeometry x="230" y="240" width="120" height="80" as="geometry" />
        </mxCell>
        <mxCell id="XNWPFkPOzoW7NmKH2UKV-11" value="Gerencia os utilizadores" style="ellipse;whiteSpace=wrap;html=1;fillColor=#e1d5e7;strokeColor=#9673a6;" vertex="1" parent="qq2iiKylXy4GbTJGjwxg-4">
          <mxGeometry x="230" y="350" width="120" height="80" as="geometry" />
        </mxCell>
        <mxCell id="qq2iiKylXy4GbTJGjwxg-7" style="edgeStyle=orthogonalEdgeStyle;rounded=0;orthogonalLoop=1;jettySize=auto;html=1;exitX=0.5;exitY=0.5;exitDx=0;exitDy=0;exitPerimeter=0;entryX=-0.025;entryY=0.613;entryDx=0;entryDy=0;entryPerimeter=0;fillColor=#ffff88;strokeColor=#36393d;" parent="1" source="qq2iiKylXy4GbTJGjwxg-1" target="qq2iiKylXy4GbTJGjwxg-6" edge="1">
          <mxGeometry relative="1" as="geometry">
            <Array as="points">
              <mxPoint x="165" y="159" />
            </Array>
          </mxGeometry>
        </mxCell>
        <mxCell id="qq2iiKylXy4GbTJGjwxg-9" style="edgeStyle=orthogonalEdgeStyle;rounded=0;orthogonalLoop=1;jettySize=auto;html=1;exitX=1;exitY=0.3333333333333333;exitDx=0;exitDy=0;exitPerimeter=0;entryX=0;entryY=0.5;entryDx=0;entryDy=0;" parent="1" source="qq2iiKylXy4GbTJGjwxg-1" target="qq2iiKylXy4GbTJGjwxg-8" edge="1">
          <mxGeometry relative="1" as="geometry">
            <mxPoint x="260" y="270" as="targetPoint" />
          </mxGeometry>
        </mxCell>
        <mxCell id="qq2iiKylXy4GbTJGjwxg-11" style="edgeStyle=orthogonalEdgeStyle;rounded=0;orthogonalLoop=1;jettySize=auto;html=1;entryX=-0.017;entryY=0.625;entryDx=0;entryDy=0;entryPerimeter=0;" parent="1" target="qq2iiKylXy4GbTJGjwxg-10" edge="1">
          <mxGeometry relative="1" as="geometry">
            <Array as="points">
              <mxPoint x="165" y="370" />
            </Array>
            <mxPoint x="165" y="260" as="sourcePoint" />
          </mxGeometry>
        </mxCell>
        <mxCell id="XNWPFkPOzoW7NmKH2UKV-1" value="&amp;nbsp;" style="edgeLabel;html=1;align=center;verticalAlign=middle;resizable=0;points=[];" vertex="1" connectable="0" parent="qq2iiKylXy4GbTJGjwxg-11">
          <mxGeometry x="-0.5566" y="-1" relative="1" as="geometry">
            <mxPoint as="offset" />
          </mxGeometry>
        </mxCell>
        <mxCell id="XNWPFkPOzoW7NmKH2UKV-5" value="" style="edgeStyle=orthogonalEdgeStyle;rounded=0;orthogonalLoop=1;jettySize=auto;html=1;" edge="1" parent="1" target="qq2iiKylXy4GbTJGjwxg-1">
          <mxGeometry relative="1" as="geometry">
            <mxPoint x="165" y="310" as="sourcePoint" />
          </mxGeometry>
        </mxCell>
        <mxCell id="XNWPFkPOzoW7NmKH2UKV-7" style="edgeStyle=orthogonalEdgeStyle;rounded=0;orthogonalLoop=1;jettySize=auto;html=1;exitX=0.5;exitY=0;exitDx=0;exitDy=0;exitPerimeter=0;" edge="1" parent="1" source="qq2iiKylXy4GbTJGjwxg-1" target="qq2iiKylXy4GbTJGjwxg-1">
          <mxGeometry relative="1" as="geometry" />
        </mxCell>
      </root>
    </mxGraphModel>
  </diagram>
</mxfile>
